<?xml version="1.0" standalone="no"?>
<!DOCTYPE svg PUBLIC "-//W3C//DTD SVG 20010904//EN"
 "http://www.w3.org/TR/2001/REC-SVG-20010904/DTD/svg10.dtd">
<svg version="1.0" xmlns="http://www.w3.org/2000/svg"
 width="260.000000pt" height="260.000000pt" viewBox="0 0 260.000000 260.000000"
 preserveAspectRatio="xMidYMid meet">
<metadata>
Created by potrace 1.14, written by Peter Selinger 2001-2017
</metadata>
<g transform="translate(0.000000,260.000000) scale(0.100000,-0.100000)"
fill="#000000" stroke="none">
<path d="M270 1305 l0 -705 155 0 c117 0 155 3 155 13 0 6 0 182 0 390 0 207
3 377 7 377 5 0 15 -11 23 -25 8 -13 139 -189 289 -390 l275 -365 156 0 157 0
-1 390 c-1 215 2 389 6 388 4 -2 78 -97 164 -213 85 -115 164 -221 175 -235
10 -14 42 -56 71 -95 29 -38 57 -75 63 -82 5 -6 33 -43 60 -82 l50 -70 123 -1
122 0 0 705 0 705 -155 0 -155 0 -2 -397 -3 -398 -40 55 c-22 30 -45 62 -52
70 -7 8 -75 101 -152 205 -77 105 -144 195 -149 200 -4 6 -50 67 -102 138
l-94 127 -156 0 -156 0 0 -395 c1 -217 -1 -395 -4 -395 -3 0 -45 56 -95 123
-250 340 -400 543 -410 554 -5 6 -26 34 -45 62 l-35 50 -122 1 -123 0 0 -705z"/>
</g>
</svg>
