<svg width="20" height="20" viewBox="0 0 20 20" fill="none" xmlns="http://www.w3.org/2000/svg">
<g clip-path="url(#clip0_1404:3537)">
<path fill-rule="evenodd" clip-rule="evenodd" d="M19.994 5.54416C19.8547 2.46343 17.3048 0 14.1904 0H5.80969L5.54416 0.00598984C2.46343 0.14525 0 2.6952 0 5.80969V14.1903L0.00598984 14.4558C0.14525 17.5366 2.6952 20 5.80969 20H14.1903L14.4558 19.994C17.5366 19.8548 20 17.3048 20 14.1904V5.80969L19.994 5.54416ZM5.80969 1.875H14.1904L14.4131 1.88125C16.478 1.99732 18.125 3.71651 18.125 5.80969V14.1904L18.1188 14.4131C18.0027 16.478 16.2835 18.125 14.1903 18.125H5.80969L5.58691 18.1188C3.522 18.0027 1.875 16.2835 1.875 14.1903V5.80969L1.88125 5.58691C1.99732 3.522 3.7165 1.875 5.80969 1.875ZM15.3906 10C15.3906 7.02758 12.9724 4.60938 10 4.60938C7.02758 4.60938 4.60938 7.02758 4.60938 10C4.60938 12.9724 7.02758 15.3906 10 15.3906C12.9724 15.3906 15.3906 12.9724 15.3906 10ZM6.48437 10C6.48437 8.06311 8.06311 6.48438 10 6.48438C11.9369 6.48438 13.5156 8.06311 13.5156 10C13.5156 11.9369 11.9369 13.5156 10 13.5156C8.06311 13.5156 6.48437 11.9369 6.48437 10ZM16.5625 4.6875C16.5625 5.20527 16.1428 5.625 15.625 5.625C15.1072 5.625 14.6875 5.20527 14.6875 4.6875C14.6875 4.16973 15.1072 3.75 15.625 3.75C16.1428 3.75 16.5625 4.16973 16.5625 4.6875Z" fill="#1B1B1B"/>
</g>
<defs>
<clipPath id="clip0_1404:3537">
<rect width="20" height="20" fill="white"/>
</clipPath>
</defs>
</svg>
