<svg width="1119" height="75" viewBox="0 0 1119 75" fill="none" xmlns="http://www.w3.org/2000/svg">
<path fill-rule="evenodd" clip-rule="evenodd" d="M105.74 31.639L111.953 47.0235H99.5265L105.74 31.639ZM101.598 13L80 66.2542H91.8343L95.0887 57.9702H116.686L119.941 66.2542H131.775L110.177 13H101.598ZM219.348 13V66.2542H247.751V55.3075H231.183V44.9525H247.751V34.0058H231.183V23.9467H246.567V13H219.348ZM275.857 66.2542V13H303.372V23.9467H287.691V34.5975H304.555V45.8401H287.691V66.2542H275.857ZM322.602 38.4437C325.857 38.4437 332.366 37.852 332.366 31.3431C332.366 26.6094 328.52 24.2426 322.602 24.2426V38.4437ZM310.768 13H322.602C340.354 13 343.904 24.8343 343.904 31.3431C343.904 36.9644 340.946 43.1774 334.437 46.4318L346.567 66.2542H332.957L322.602 48.7987V66.2542H310.768V13ZM379.703 47.0235L373.49 31.639L367.277 47.0235H379.703ZM347.75 66.2542L369.348 13H377.928L399.525 66.2542H387.691L384.436 57.9702H362.839L359.585 66.2542H347.75ZM434.732 13V43.1774L412.247 13H403.075V66.2542H414.91V36.3727L437.395 66.2542H446.566V13H434.732ZM465.797 36.0768L479.111 13H491.833L476.744 40.2188L492.72 66.2542H479.407L465.797 43.4732V66.2542H453.963V13H465.797V36.0768ZM610.767 24.2425V54.4199H612.838C622.601 54.4199 627.926 49.3904 627.926 39.3312C627.926 30.4555 623.784 23.9467 612.838 23.9467H610.767V24.2425ZM599.82 14.1834H613.134C628.814 14.1834 639.761 23.355 639.761 39.6271C639.761 55.8992 629.997 65.0708 614.317 65.0708H599.82V14.1834ZM673.488 65.0708H645.974V14.1834H672.305V24.5384H657.216V34.3017H673.488V44.6566H657.216V54.7158H673.488V65.0708ZM692.423 38.4437C695.382 38.4437 701.891 37.8519 701.891 31.639C701.891 26.9052 698.045 24.8342 692.423 24.8342V38.4437ZM681.181 14.1834H692.423C709.583 14.1834 712.837 25.426 712.837 31.9348C712.837 37.2602 710.175 43.1774 703.666 46.4318L715.5 65.3666H702.482L692.423 48.5028V65.3666H681.181V14.1834ZM753.961 44.0649H751.595V24.5384H753.961C759.583 24.5384 762.245 29.2721 762.245 34.3017C762.245 43.7691 754.849 44.0649 753.961 44.0649ZM753.961 14.1834H740.352V65.3666H751.595V54.7158H753.961C769.642 54.7158 773.784 43.1774 773.784 34.3017C773.784 25.426 769.642 14.1834 753.961 14.1834ZM802.482 55.6034C811.358 55.6034 817.571 48.2069 817.571 39.6271C817.571 31.0473 811.358 23.6508 802.482 23.6508C793.606 23.6508 787.393 31.0473 787.393 39.6271C787.393 48.2069 793.902 55.6034 802.482 55.6034ZM802.482 13C818.162 13 829.109 24.5384 829.109 39.6271C829.109 54.7158 818.162 66.2542 802.482 66.2542C786.802 66.2542 775.855 54.7158 775.855 39.6271C775.855 24.5384 786.802 13 802.482 13ZM848.931 54.4199H846.861V24.2425V23.9467H848.931C859.878 23.9467 864.02 30.4555 864.02 39.3312C864.02 49.3904 858.695 54.4199 848.931 54.4199ZM849.227 14.1834H835.914V65.0708H850.411C866.091 65.0708 875.854 55.8992 875.854 39.6271C875.854 23.355 864.908 14.1834 849.227 14.1834ZM905.44 55.6034C909.286 55.6034 912.245 55.0116 914.908 53.2365L917.57 63.5915C914.02 65.3666 909.878 66.2542 905.144 66.2542C889.464 66.2542 878.517 54.7158 878.517 39.6271C878.517 24.5384 889.464 13 905.144 13C909.582 13 913.724 13.8876 917.274 15.6627L914.612 26.3135C911.949 24.5384 908.99 23.6508 905.144 23.6508C896.268 23.6508 890.055 31.0473 890.055 39.6271C890.351 48.5028 896.564 55.6034 905.44 55.6034ZM937.688 46.7276H949.523L943.605 31.9348L937.688 46.7276ZM919.049 65.3666L939.759 14.1834H948.043L968.753 65.3666H957.511L954.256 57.3785H933.546L930.292 65.3666H919.049ZM974.67 50.2779C978.221 53.2365 981.475 54.7158 983.842 54.7158C986.505 54.7158 988.872 52.9406 988.872 50.5738C988.872 47.4729 985.795 46.0547 982.121 44.3618C976.683 41.8551 969.937 38.7461 969.937 28.6804C969.937 19.213 977.333 13 985.913 13C990.351 13 995.38 14.7751 999.227 18.9171L993.901 28.6804C991.83 26.3135 988.872 24.2426 986.209 24.2426C983.842 24.2426 981.475 25.7218 981.475 28.6804C981.475 31.5967 984.465 32.9032 988.087 34.4859C993.65 36.9174 1000.71 40.0007 1000.71 50.5738C1000.71 61.5205 991.83 66.2542 983.546 66.2542C977.629 66.2542 972.599 63.8873 969.049 60.0412L974.67 50.2779ZM1002.78 24.5384V14.1834H1032.07V24.5384H1023.19V65.0708H1011.65V24.5384H1002.78Z" fill="black"/>
<path d="M201.005 13V43.1774L178.52 13H166.686V43.1774L144.201 13H135.029V66.2542H146.864V36.3727L169.349 66.2542H178.52H181.183V36.3727L203.668 66.2542H212.84V13H201.005Z" fill="black"/>
</svg>
