<svg width="20" height="20" viewBox="0 0 20 20" fill="none" xmlns="http://www.w3.org/2000/svg">
<g clip-path="url(#clip0_1404:3536)">
<path d="M10 5.65707e-06C8.02219 5.65707e-06 6.08879 0.586495 4.4443 1.68531C2.79981 2.78412 1.51809 4.34591 0.761209 6.17317C0.00433281 8.00043 -0.193701 10.0111 0.192152 11.9509C0.578004 13.8907 1.53041 15.6725 2.92894 17.0711C4.32746 18.4696 6.10929 19.422 8.0491 19.8079C9.98891 20.1937 11.9996 19.9957 13.8268 19.2388C15.6541 18.4819 17.2159 17.2002 18.3147 15.5557C19.4135 13.9112 20 11.9778 20 10C20.0014 8.68639 19.7437 7.3854 19.2416 6.17152C18.7396 4.95763 18.0031 3.85468 17.0742 2.92582C16.1453 1.99696 15.0424 1.26041 13.8285 0.758363C12.6146 0.256311 11.3136 -0.00139228 10 5.65707e-06ZM13.8438 14.75C13.686 14.7407 13.5342 14.6865 13.4063 14.5938C11.8313 13.6829 10.0379 13.2183 8.21875 13.25C7.15748 13.2528 6.0995 13.368 5.0625 13.5938C4.89837 13.6373 4.73125 13.6686 4.5625 13.6875C4.39674 13.6875 4.23777 13.6217 4.12056 13.5044C4.00335 13.3872 3.9375 13.2283 3.9375 13.0625C3.9277 12.903 3.97617 12.7453 4.07388 12.6189C4.1716 12.4924 4.31193 12.4058 4.46875 12.375C5.69841 12.0891 6.95631 11.9423 8.21875 11.9375C10.2567 11.8984 12.2667 12.4171 14.0313 13.4375C14.1587 13.4912 14.2663 13.5832 14.3391 13.7008C14.4119 13.8184 14.4463 13.9557 14.4375 14.0938C14.4492 14.1773 14.4424 14.2625 14.4176 14.3431C14.3928 14.4238 14.3506 14.498 14.294 14.5606C14.2373 14.6232 14.1677 14.6726 14.0899 14.7053C14.0121 14.738 13.9281 14.7533 13.8438 14.75ZM14.9375 12.0938C14.7555 12.0842 14.5809 12.0187 14.4375 11.9063C12.4942 10.8407 10.3099 10.2919 8.09375 10.3125C6.99797 10.3158 5.90664 10.4522 4.84375 10.7188C4.68574 10.7895 4.51648 10.8318 4.34375 10.8438C4.24088 10.8448 4.13884 10.8252 4.0436 10.7863C3.94836 10.7474 3.86184 10.6899 3.78909 10.6172C3.71635 10.5444 3.65884 10.4579 3.61993 10.3627C3.58103 10.2674 3.5615 10.1654 3.5625 10.0625C3.55002 9.87066 3.60596 9.6806 3.7204 9.52611C3.83483 9.37162 4.00034 9.26272 4.1875 9.21876C5.46558 8.84037 6.79211 8.65087 8.125 8.65626C10.6221 8.62299 13.0825 9.25967 15.25 10.5C15.3977 10.5679 15.5215 10.6788 15.6051 10.8182C15.6888 10.9576 15.7284 11.119 15.7188 11.2813C15.723 11.3864 15.7059 11.4914 15.6685 11.5898C15.6311 11.6883 15.5743 11.7781 15.5013 11.854C15.4283 11.9299 15.3408 11.9902 15.2439 12.0314C15.147 12.0726 15.0428 12.0938 14.9375 12.0938ZM16.1875 9.03126C16.0094 9.02736 15.8361 8.9732 15.6875 8.87501C13.8438 7.78126 11.0313 7.18751 8.34375 7.18751C6.99575 7.16993 5.65117 7.3275 4.34375 7.65626C4.18026 7.70254 4.01291 7.73391 3.84375 7.75001C3.71835 7.74875 3.59444 7.72261 3.47922 7.6731C3.364 7.62358 3.25976 7.55168 3.17254 7.46156C3.08533 7.37144 3.01688 7.2649 2.97117 7.14811C2.92546 7.03133 2.90339 6.90663 2.90625 6.78126C2.90288 6.56764 2.96773 6.35853 3.09137 6.1843C3.21501 6.01008 3.391 5.87984 3.59375 5.81251C5.14087 5.38703 6.73923 5.17672 8.34375 5.18751C11.2813 5.18751 14.375 5.78126 16.625 7.12501C16.7874 7.21109 16.9212 7.34266 17.0101 7.50362C17.0989 7.66458 17.1388 7.84794 17.125 8.03126C17.131 8.15892 17.1112 8.28649 17.067 8.4064C17.0228 8.52631 16.955 8.63614 16.8676 8.72937C16.7802 8.82261 16.6749 8.89737 16.5581 8.94922C16.4413 9.00108 16.3153 9.02897 16.1875 9.03126Z" fill="#1B1B1B"/>
</g>
<defs>
<clipPath id="clip0_1404:3536">
<rect width="20" height="20" fill="white"/>
</clipPath>
</defs>
</svg>
